<mxfile host="app.diagrams.net" modified="2020-08-18T08:01:23.199Z" agent="5.0 (Macintosh)" etag="pkJ6twdS7jJukYy8j5KS" version="13.6.2" type="github">
  <diagram id="FpYl6TmUG7DWgx8BWSuz" name="Page-1">
    <mxGraphModel dx="780" dy="644" grid="1" gridSize="10" guides="1" tooltips="1" connect="1" arrows="1" fold="1" page="1" pageScale="1" pageWidth="850" pageHeight="1100" math="0" shadow="0">
      <root>
        <mxCell id="0" />
        <mxCell id="1" parent="0" />
        <mxCell id="-fuD-kDa9oxXJxm3QYNq-20" value="" style="shape=image;imageAspect=0;aspect=fixed;verticalLabelPosition=bottom;verticalAlign=top;fillColor=#4D4D4D;fontSize=16;fontColor=#FFFFFF;image=data:image/png,iVBORw0KGgoAAAANSUhEUgAAAhoAAAEXCAIAAABkrXoyAAAAAXNSR0IArs4c6QAAAJBlWElmTU0AKgAAAAgABgEGAAMAAAABAAIAAAESAAMAAAABAAEAAAEaAAUAAAABAAAAVgEbAAUAAAABAAAAXgEoAAMAAAABAAIAAIdpAAQAAAABAAAAZgAAAAAAAABIAAAAAQAAAEgAAAABAAOgAQADAAAAAQABAACgAgAEAAAAAQAAAhqgAwAEAAAAAQAAARcAAAAAwYsaugAAAAlwSFlzAAALEwAACxMBAJqcGAAAAgtpVFh0WE1MOmNvbS5hZG9iZS54bXAAAAAAADx4OnhtcG1ldGEgeG1sbnM6eD0iYWRvYmU6bnM6bWV0YS8iIHg6eG1wdGs9IlhNUCBDb3JlIDUuNC4wIj4KICAgPHJkZjpSREYgeG1sbnM6cmRmPSJodHRwOi8vd3d3LnczLm9yZy8xOTk5LzAyLzIyLXJkZi1zeW50YXgtbnMjIj4KICAgICAgPHJkZjpEZXNjcmlwdGlvbiByZGY6YWJvdXQ9IiIKICAgICAgICAgICAgeG1sbnM6dGlmZj0iaHR0cDovL25zLmFkb2JlLmNvbS90aWZmLzEuMC8iPgogICAgICAgICA8dGlmZjpPcmllbnRhdGlvbj4xPC90aWZmOk9yaWVudGF0aW9uPgogICAgICAgICA8dGlmZjpQaG90b21ldHJpY0ludGVycHJldGF0aW9uPjI8L3RpZmY6UGhvdG9tZXRyaWNJbnRlcnByZXRhdGlvbj4KICAgICAgICAgPHRpZmY6UmVzb2x1dGlvblVuaXQ+MjwvdGlmZjpSZXNvbHV0aW9uVW5pdD4KICAgICAgICAgPHRpZmY6Q29tcHJlc3Npb24+NTwvdGlmZjpDb21wcmVzc2lvbj4KICAgICAgPC9yZGY6RGVzY3JpcHRpb24+CiAgIDwvcmRmOlJERj4KPC94OnhtcG1ldGE+Cs+OiooAAEAASURBVHgB7d11oCzFmTZwslkWggYNCe7ukuBycYfg7sHdIUiQiye4u7tvcLfg7iEkuGsC7Ga//X5Qu71zZ87MmZnusTPv/HFOd3Xp01X9ar010o9+9KOR4hcIBAKBQCAQCORAACn5npb893//d45KomggMPQRsFJimQz91xwjzIGANfIvOYpH0UAgEAgEAoFA4H8QCHISUyEQCAQCgUCgAASCnBQAYlQRCAQCgUAgEOQk5kAgEAgEAoFAAQgEOSkAxKgiEAgEAoFAIMhJzIFAIBAIBAKBAhAIclIAiFFFIBAIBAKBQJCTmAOBQCAQCAQCBSAQ5KQAEKOKQCAQCAQCgX8dehD8y7/8S2xg7pXXaift//t//69Xettz/Yy10EOvbAishSFITtCS+smJVzj33HNXm3NPPPFEjapql1Vn7eJljaqtRluVmWt0u3bTebqdp2zZENKtCgdMj8RCEPh+JdQdQinPy81TtnKkauv+bhc7ZCCosBKK3koZguSkt15A9DYQCAQCgSYQ+K8ffk0UrFbk3/7t36o9qjM9yEmdQEW2rkPgP/7jP5rrExXQv/5rzPzmwItSgUBVBGJRVYUmHgQCgUAgMMQQwEv5Uaz5FS7fBDkZYrMlhhMIBAKBQDkCSEiSyL/66qsPP/zw66+//vbbb8cff/zJJ5/8e/Na3Qa28npHvA9yMiIecdfLCFgzP/7xj7Fd2SCsk3/+859FrZas2rgIBHoIAUaRL7/88p577rn++uufeuqpt956i6J4ggkmIJ2ss846u++++5hjjlnIcIKcFAJjVNJJBNCPkUceWQ8+/fTT119//f333//mm29GGWUUi2TCCSecYoopXKAo//mf/9nJXkbbgUAnEEBL7rrrriOOOOLee+9N5sZf/epX22yzjb8PPPDAIYccsthiiy2++OKFdC3ISSEwRiUdQwAhIX9YMJdeein+C+WYeeaZP/rooyeffNLfccYZZ+KJJ1566aXXX3/9ueaaS87Y5tKxVxUNtx0BtOSPf/zjb37zm7fffhtHZS3suuuuG2+88bjjjosJI6CcddZZn3zyiUVBss/fuyAn+TGMGjqGAFry2muv7bfffjfccAPOiyL4sssum2666XSIRI8jO+WUUz777LPnn3/estlqq61++9vfjj766KH76tgLi4aLQ6CSAKSUbHq7RSoOPfTQ9957j+Fk1VVX3X///TFb0lMei+Xdd99FVKiIK2troqdBTpoALYp0BQJWyBtvvGGRvPTSS6lDRBC0hAjidtJJJz355JMtm1NPPdUt3fExxxxj8aAr9GBdMYDoRCCQA4HLL7/8/vvvTxXgq0z1v//97yztpvoXX3xhFfzkJz/x1GZqwscMM8ww1lhjnXPOOVS+MkuxdkjzCMn5559/7bXXElaOO+64nEsjyEmO9xlFO4qANXPsscdmtERfWErIItl+FPSGjvjqq6/mypJ6eskll6y88sorrLDCGGOM0dG+R+OBQF4EFlpooRlnnDFJFXfffTe2iaTOuq7emWaaadlll2VEvO666yaZZBJiupT0iPrr2WefHT58+HPPPYfk7LXXXmuuuWZy+kJmcvYpyElOAKN4ZxDAXvFIuemmm0qbRy3otZJ0ktIxX6ONNlppnj/84Q/0yLvttltpYlwHAj2HADrhZ7ajDSeeeOLHH39MQOF4stNOO6233npUWISVp59+Gv+01FJLjT322AbIReWiiy46+uij//znP1tBCyywAA3wlFNOmcZe6hLZHBpBTprDLUp1GAFM2UknnWT9nHvuuVlXfv7znx9//PEWmPSUSHi3YN58880sz7bbbrv22mtnt3ERCPQoAqQN3NKZZ575+9//nlBO7FhrrbX23Xdf+l7zH234xz/+QVK3v8Stv1RbcvqbxPdFF12UcI8gZR6PasgJRZCTnABG8Y4hQDW8yy673Hbbbe+8807qxO23337fffcR85OAYkWhOlZa1sX5559/ueWWyy/UZxXGRSDQKQTMbTP/7LPPZiwhYRxwwAH4JPyTyY8wcGvcZ599GAvPO+88sgjF1zPPPIOQENbnmWce4ovM/LvSSilqCEFOikIy6mk3AtbGrLPOyjSy4447Pvroo5rHjm2xxRaUyDyD3dIIP/744w899JBrpIXRnrFxvPHGw9YlZXG7exztBQLFIWBK20pC8h42bNiRRx5pLdBf+aEljzzyCDHlwQcftEbWWGONX/ziF2wnq6222jTTTDP99NNPNdVUbIcISbG0xMiCnBT3eqOmtiNgtfzyl78kkXBZOfzwwxlF8Gurr746ty4CPlcWRnh7G2ebbTb65eWXX95iI9on62XbOxsNBgIFI4Cc2E2FfyKdmNgICf8U6i9arA8++MASsA2LRL7RRhtlFkSJqIiFU3BXfqguyEkrUI0624QAwkDUuOWWW0SPIPJTfxH5sWmff/45jy8ekGR8XSHys0AyTs4777xt6lk0Ewi0HgE0A7UQeivpdct2v9uuyBsYC4WEZAaS1Cn5W9G7ICetQDXqbAcClgQ+i1DP/G7NaHLdddfde++9s7Y33HBDkj5fL04v9szbHmwnCq1x4TJ+1mJcBAJtQ8Ccp8LCSNFfUV7ZhsItmL5XBwgrW2+99QYbbMBRHr+VSeSWjJ8Mab2UXkvMb1MMctK2tx8NFYyA2X/BBRdwVsnqXXjhhV1bPynFMuP9xfbOP1IKkWX77ben+JplllmyInERCPQoAhdffDEbu9jAbIeUV2gGokIEZx2k7PXIHniOwngpYR/pwfgNU/xaBS6UQkvY7REeRRIClGY9v42RIJYGk0hlj77ajnSbYwancq5+vDhuvPFGKp2OdKNTjb7yyivUWaWtWy2vvvpqphemChOzy35gyyll4+WFg/vpT38KtNKC7bk21XtikgsIKFxNhgkVyt/+9rfsNi66BIEVV1zRmzLJv/vuO1PLhR+y4Zrw4UcKZ03klmLfCY8V9kWfCE/xYVKU5aViz/xpp50m8opBKZtzaB2WTrCTolqmMcBisskmm3baae3S3Hzzzd3mHNvQLs7OTIHjc2mKiOxGsKXbKd1gMbSHb7XQcQnMVTpM2xgZSzJy4pGVw+O+NM+dd95pS9cOO+xQmtiG61//+tfXXHMNd4Cbb745a87OZNuSs9vsgghlJ3N22+aLLbfcEjlJahNN20Qd5KTNr6Ce5nBFPgJyZjwKUpEVlEheEaFO2JUDDzzw1ltvTQvBdhMKYbSEIML0gh+VQTgJKyWrJ6uk0YsOkxMfBT2mgjAYtJThSCBYuwdOP/30O+64A16Njqd/8psHpFpxqMRxS8HdcBycOvoEAdyG8I6UXeyN2ZCtH+EgJ5poosw6wiFYIK8sEAttAF/hOeecMyvSngtETpBKbfEa+Otf/5rx/vjKsi+1NU9NUfpdaE8Ps1bsjLOz2ubQ/plL2dh768LHM9PrVvYcbfDU2zzjjDP4N8psXey888486X03rBRFzD20xBrJMlfW01BKV0gAnKYt8hNOOEHMDGuJEYkIZuQNjaTfMlPX+BiRYQ3cR8rfn/3sZ30FAprBrs4Un20iEbNIhAkuXlIsJH/5TVIfJ1hwJ+YYWlJjEbYIQHoGvcUVWtViUGat2FDGUyD7EVbmnntuOkyCV5anzRfU7pQe+FbxoHyA2tx6NFcsAmYdDbBZt+SSSxKORacn0KAl2HdbsiwWdhTbUPLLJanbXUFOShHk62nN44+oxcVVLn0U16UI+CrR2CQug7XZozI+tzTzkLy2SHDx4m9feeWVRHiSB5HliiuusCue1osR5eWXX/YFR2OwY+JPkPc33XRTiLWZ908khM3TUUXUkrYxZ8JT2XtBGvEHwrumGPtlT9tza6ebhvhbX3jhhdg75lkKk/Y0Ha0Ui4B5juPEHAgewW7vvCwpCIm/vq5WxJ/+9CdaLyaGotrtOnJiYAZMe+PC56CocQ69ejhsUAyOOuqo/Dp8hv7yl78kSWXojbTGiCwMoobZctVVVwnGBQ181gsvvOC8IIz/7LPPzszIceWggw7ycZxvvvmYVRSpUWErHlHeejubbLIJaYl9C5PEb6KyIf4CRx11FKvhIossUvm0bSlIr0MyBMqkJISqnTq61LbWo6ECEbA0+J7wnufiReR1i7Rgs6wOi8WcZHm1w7FAdqEbyQlASdz+UnwVCO7Qq2qOOebAjPtC4SLx3eTWoTfG2iMijlgkFP3cV3gMu0U2rBOMCMsKtw7FuSqIPUyA81m3nIqS62t3rPQp5bVGk40n/WUaLM3gGpFjQSSaH3zwwWWP2nxr+8Iyyyxj1yfHOe4AtF78Atrch2iuHgRMqho/a0ElVodVYNpjZTgHkzX5g7E48rOg9SIuE1nkTPXU02jtPB02xVfrXHJCQDyrZYh0Sgmb8hjZNttsMzr3PgTEGjBP6H9ZJtLwMdR+lhDfLVSWIM+fSjgvIj9vV26RSA7WTIa2wZWM8CJh6C1tpFgXHJcRNj54NLpZN1i/dE/Y/I6bK6gHaeSS55tvUNKNZP2Mi+5BwG6qtKFqwC6Zb0nTxWQi0jYjIk6LPoOy1yOSOjsK5x23mQuf3fUDVlV/YpeSE/puY6Burn8k/ZaT8oSrH7WJr1L6MD322GMppkifQOFLRwTJaIlRCzjhb+LL8Pu8FSi7mFW4r0hHe3yvaW+Yu9sGUTLCcy3JvLlS0/ymDjvssKwbaRRIYJbSqQuWW6EEqAedyOScMUoSzGynOhPt1kCAyRCTVCMDo519J5QW3B2xUKQTS8OPlwrRk8guceqpp/b1QGDUY072/DbGSjjs22QGELysgwbJyl51Wwp/DF2iA806xrzmFJ3sdmhfoBa+d2VfOlyIxGzfiZVjRVktmfSGEaPGwXQzq7QBn2SE51HGdzFrTs+ZRtEPei09ke4Lzo3YXv329CrryYAX4pmjfAgJrQj2lgnX9qYBc0ZiZxEQYT7ZmKt1g8cH5SrPlCWWWIJo4oevMid9WldaaaXFFlvM2cB+nFnoMy2WnLREN7pOOmE74nJg2PR6fHWqIRXpfGT7HATaoeTYluFAiURBWppIa+yXZXBB48RW354PdzLCc3x3hFdpHxxhZLeQaEt0cdKFE0cCLfvSPJ261hPMrNUHSYYTX59O9STarY2Ar39iRwbMRuCwEEx+tkPeOoLVYw7kxCjYOctkQri3d81PBmG5iSwD1tNQYleQkz333NOwcW2ii/PmtG8AZ0S119BIInNfIWC18FcRPNgXObOFkGuxY1T/pVDY1UHXlFJoh5mXk4m+NE+Lrhnh1cxLoqx+nUROGOQTOdFDGVKgi7KcnbqlGAw3/U6BX2e7Pph+NTJ7ikhQYRF/XdNrOVCLTMOVK7mqv/jiixxEU+z62lXVaKX0UVd4djEps5FS1NhxxnxKg8EkkAXoL+1uXAcCGQKYLzK7uACZp6MN50xK6TuYlodoZpzrUxGmFHs+0JJq2z6ymgu5sFCpsMR8ZfYsq5AJlMld3Ie0VSg5xHcVOSnrcNz2KAKmOk2PtUDlI1pdMrhiv4gmph+HC9ecemi6Chlgh6UTIlghw4hK+hABi8RiED3B9xo7Qq61ciyShRZayFYJf60lxIa7uXgBmLLtttuONY4yp6jFUxtzklCp2q00M56xlPdnR/ErzRDXgUB+BCwQUqbNWDalckNnMrEi6IEY54VdsDQoMzk6Oqsxf1uphg6Tk6KGEfX0JwIWDPKwwAILoCh4fNYUdpHXX3/d0SZsjNyFCQc2aslg6y8zgMz9CVSMug8RwGwxRdOsYqSSsgctofjlA3LbbbcxpVALcyYsUA8U5KQPp9lQGzIiwZRCWZQOMiEToBwoDSGAUG+01lUQkqH21vt+PLWFbE/9LAQ0Iy0EAjE7CoudC6uDuvXoo4+2I6qGPb9RjIOcNIpY5O9GBCyPTLOEtFhIqZdBRbrxbUWfikBALBxeS9VqsgpMfoSEfzCCwZJn94WQ7VgrRcjr9v8KRJRIS6rEPj+lqlVYT3qQk3pQijzdiADJvRu7FX0KBNqCgEgKPM6rNYUwoByiZshgRxpmi8eKcHA0wDyM2VFsgeTIjg/LauASlXPryfe0qLTGrOrevYBj/SMalBrXqGrQsg1hW2y3azSdp9t5yg44oxoadWkN3kvT5mvif6ObPJruZ2mf23/dULfzvNw8ZSth6YluFztkIDQ0avnZ1ZOoUQlgqg0JEf9RODtn6+G91O9HXvHU8vErK5iXlvzoR/0unZRhCu6ylDLES28rczZUvLSqRq/zNF1sWT1v26jLUOK1UpZS521owAYEqmxiNPRay8qqv6HiA/anzsQ8TRdbtp2j1haNbmX/M9Dgn1S+/rIgJiNi6VMZstuiLvqdnBSFY9TTZgQsBv4qbW40mgsEugcBtKQGOdHP9LT0b6s7H+Sk1QhH/a1CoGkhA79WoDdLq4YX9QYCvYZAMZshe23U0d9AIBAIBAKBghEIclIwoFFdIBAIBAL9iUCQkwbe+1tvvSXuTQMFej8r1xER3W2G6v2hxAg6j4AYZU5zEg6nxrlPLeqlo4BuvvlmzrWO/WiuiW5bC2lzYjKzD/iXRpdeN7lyDZihLLE5WEpL9bujcCkWrmu4o5hMvLb5caejvcoKptsaxQfMX5qYp6x68hSvUdY2WsHVHRPi3NnS3pZe1yhemm3A6zxl22k7ydPPAQfensQ83c5T1ugqi19yySWCKzt+RqROJ9KLiFN2pFiGSWXZ7FE9F5XFHXov1o7gVA4l9Hm15UL0nQGrqiybZeu2tYA2p20lWQ9LLwyEJ7Fg7QsuuKBIqRyFa9vtlbVDPjmDldZT/7UWwxRfL1zDhw8XSHzCCSest0CP5xNc3RnsWTjeLhxNbGPswpdSrUu+ZbZhOzlYwCjx0qecckoHZVpT1fIXmG77hVPmttxyS3EPRT8UG9RZk1dccUX9TXTnWnj44Ydrh9ClVHAao9N0EFGSyqDkxCFaOddUkJO6JtXjjz9uy6gzhfrnuENhq527jrU59thj68KovZmsjcMPP7y5Nn3L4vCx5qBruhQS4rwNkZ7V4MDg6aefvultQ432wfFQzilI55baGe4IDOFBG6qkO9eCINnCzlcbCFmB+I6c2LErzmN2iEO1/IWkBzkZHEaqHttKsTbe0OC5h0oOB4L6YW26k5yAecYZZ2wO7P4RMZvDpxWlaLfMJTU7LZjthBmSuNCKhirrFEwaMXPEskfWMgvKoosuWpmtRkp3rgXqd79q3U7KLgJKyuNvMqJUy19IepCTwWHcY4895phjDozAlVdeOXjuyNEWBKyW1VdfvS1NRSNFInDfffc5BJCOHuNczYBRZHs/WHEcVKxORxgQuFkUKLuKbSJqSwiEZ9cgM4FcTHO6yiqrOCHAYZG4GxdZ8NpBCsfjViJAlm/u54PSyn5F3bUQECCd6tiCcu5ZrXxFPzvyyCMxhc5PYw4s8MCoorvZ2/WFdDLI+0s6X/ZD+RxF7nbHHXfEYYXCZBDgOvo4GR5rqAI62rt+bJyCa+WVV+aM5GRM4xcg/ayzzmqPBkZze+21l3Odefk3GvqzH19VjjGHdDIIeNgoMnL6scNzbXQdtGQQ1Dr6mI6Ygv7666+PSCodfQ8jND777LN7Lz7rvIS52h933HE8rNqgzdcJLR71w2+GGWZ484efQ21H6FzcFIRASCcNAElfn8cvu4GWImsdCNRwauTKkiqokaeOFiJLYQg4+885TtyrnL2hUlu4uKEXVnvNimxw8Tw5laWMw4YNu+OOO2oWiofNIBDbGEdADcEY1Dt7hAIj3uQpnqesXuQpnqdsZ5seEf4W3uWEqIU9q1l1nm7nKatT1Ypz23V2k1+NjlcrW6NI6aM8xfOUrTHq0u5Vu260aapCvxq1MfGus846yyyzzCabbDLqqKO2WhbU/5BOqr2OSA8EAoHiEQgzePGYdk2NYTvpmlcRHQkEAoFAoJcRCHLSy28v+h4IBAKBQNcgEOSka15FdCQQCAQCgUIRYAnOYwxutC9BThpFLPIHAoFAINADCCAkQstMNdVUrTbCZ1iEZ1cGxfcXjTpXjFA4X/FougzMrrrN+XY6NZY83c5T1njzFM9Ttm+b7tQcy9r11kI6ydCIi0AgEAgEAoHmEQhy0jx2UTIQCAQCgUAgQ2BoKruy4cVF9yPQTlNh02jkVL803W7Ogrqds4Yo3k4EemItVAPEZBua2xjrfysgmHvuuasB9MQTT9SoqnZZddYuXtao2mq0VZm5RrdrN52n23nKlg0h3apwwPRILAqB7p9UlSONtVCJSU+khLKrJ15TdDIQCAQCgW5HIMhJt7+h6F8gEAgEAj2BQJCTnnhN0clAIBAIBLodgaFpO+l21KN/RSDgKMY81ThrIA5EyQNglO0SBEQOrmEhY4iyjdFfP0fHlx1FWuwJDkFOumRKRDfajYDV1e4mo71AoF0ImN4jjzyy1pxH/tZbb3399dfffvutozAnm2wyFKUG+cnTwSAnedCLsl2HgFWEFys75WzAkyHwdG0LPtF1MEWHhjQCZI7vvvvutttuu/baax999FHkBFGZYIIJDHqLLbbYc889WzT6ICctAjaqbTcCaIMfIvGXv/zFEa5ffvkl0X700UcXtmiSSSZxzAYagy+TqGeojvXmTKF29zLaCwRajABaYovCAQcc8Mc//jFJIU5W3mWXXeaff/7bb7993333daCWbQZWSuEdCXJSOKRRYbsRSHL922+/fdVVVzkiHi2ZZZZZfvKTn7z88svPPfccA8nEE08866yzrrnmmqusssrYY4/N6GKZjTHGGO3uaLQXCLQYAQquxx57bLXVVnvnnXc0hZfae++9t956a9PerYVw/PHHE1bmmWeeVnQkyEkrUI0624cAWqKx00477cgjj0RIXOPLDjroIOmUxeT9HXbY4a8//G666ab55ptPtsUWWyxRlPb1MloKBFqPgDn/zTff7LHHHomWDBs27IgjjkA5COVkEZTm8ssvf++99yaaaKIW9SUchVsEbFTbcgQor/wIH4cffvg222yTaMnPf/7zbbfd1rpK62fllVcmskw44YSpN/TIq6+++h133EEhkOhQy3sZDQQC7UIAwbj//vvvvfdeWlxM1XXXXYeW4Jwogc32P/zhD1grAsrMM8/cCk2XUQY5aderjnaKRuDTTz9lIHn44YePOeaYrG6+K9bPxx9//Nlnn33yyScffvjh9NNPv+6662YZpJNdPvroo6+++ipLjItAYAggwC549tlnM7lfdtllBx98MKKCbCAkL7744nrrrcd8Ql7fbLPNxhprrPDsGgKvO4ZQGAJWzl577YXtYnjnBJnV65axEZuWLRgSDKJiUWUpzzzzjKXFPkktkBWMi0Cg1xHgwfjkk0+iHGyECImZT/dFwXXYYYeR3S2Weeedd5NNNpGtRSMN20mLgI1qW4uApfL73/8e2XjqqaceeughbFdqz8WWW26ZZPyUIs9rr712yy23ZBu4pp566hNOOGGUUUZpbRej9kCgvQhgmNAM85xbsOvHH3+c4Z3KyzV2iuHw1FNPZZwPctLe1xKt9QICyTVrgQUW2HzzzU8++eTUZe6/lhCObLTRRkv0g3Hliy++SP7B8lhv22+//bjjjpul9MJYo4+BQFUEzjvvvGwyY6cuvvhi8jql7j333EMbnIoxmdD63nDDDQ8++KAlkAiMR7/5zW+q1tv4g7CdNI5ZlOgOBCyh9DvqqKPszMocf6+55hqW+ffffz89JfVfeOGFrvXaBpRTTjll0003lUgP0B3jiF4EArkQ4FeSfgRuzNPyyy9vnr/77rtphpPjOc2TyMccc0w7Uah50RgpqUiuhisKh7KrApJI6CkE0AkLg/svlfH+++9/6623IhVnnXUWt2ACCk2XNfbCCy8gNoQY5hauXzIYYiIwPTXW6GwgMAACG2+8cZbKY/5Xv/qVPVg2XZnnlsZMM8202267rbrqqpYAh/lFF110rrnm4kOcFSnwIshJgWBGVZ1BAEdmnVx66aXPP/88vfAiiyyy884703R98MEHqAu6olvcve6++248GtEk6cH87Ux3o9VAoFAEkA3KK1USRPBPnLs4m7jmwYXS2MYoJITlIA8lmIWQ2CkXiqA3BfYlyEmBYEZVHUDA+qEORiTY2zWPSPCvn3POOVNXmEkOOeQQnsEWz7PPPrvjjjva2HjOOeeMM844aQV2oMfRZCDQMgSwU2gJBoul5NBDD+XiZZ6b/Owlr776qvmPlnjUItE8LzkZcE3yImgZXC2pePHFF5988smzqu+6666//e1v2W3XXrAn26ZHT2oXxY033khb2rVdbUXHrBA/m0uYExMt0Qr5Y7rppjMt04LBo9GACWEk+ErqA2HFDi8uLi1aUU2M1B5mwWDsmJlmmmkouJuoIYoEAgkBUohFQbXFoDjllFMiJJaA5cCzcZ999jHN1lprLd+65KVSOGi5yMnCCy/8wAMPVPaJ5pqeWrre01a7JW0ZocSVVlqpMn/HU7iWgph3XeoJNrb7yQlJlnoHl42KcNvYYIMNNtxww7QzvON4tqcDtMNE9fvuu49pJGvRysGF2cCVUQu2E1FVMnIiJw0Y9/zxxx9fsO6sYEcuCFLHHnssTXdqXbeJWTb58+bsSH+i0Z5GwOSnzjLb6bt8H5JQYtPVSSeddOKJJ9q3y3wiflfr2P1c5CStWPoECofS12ATf7rFFVq64403Hjcb6znRmNKc3XCNmE8xxRTnnnvumWee2Q39qbMP5BLA2hBuByxSjQdfaqmlemsIdY50wGzmnr0j3l32LU7ZXnnlFR9oPH5GTnBnHIX9zVJsp+ffJUwkE8uAlbchUWc22mgjPp3TTjsttpF2zrK/6KKLiE120ggDIxZyG7oRTQwxBIgdCy64ILJB6+UnhDDuxMYs8583F+aeKT7ZTlox8FzkJHWIU001qyY+EQOIPXQhMy1EK8aQs85JJ50Uk8tsO+OMM3LWRvlyVtie4nRc9lhcffXVmiPJIie0Je1puhtasTzsNfHXK1tyySWffvrp1CtLhePKrrvumonz9Mi0yVdccUXWbfFWScwZdcnS23nBdxktWW655WyRyRRcoo05joJpx06C7bbbrp39ibZ6FwFCiZ/+++tja7sJXhPPdMEFF3Cap3TBdc0wwwyYJwqM1tESHSiAnAz4Gh555BGBYhghCFaWh8BKshmnNcwQZH8m1uzzzz+3yKmVBN+3foTnw1dSNIk5QxsuVMaANReeSGGtTvr0VLPwzrvvvvvf//73whsqtkIfRFblNDl8lVTe/Qq6YhGwePBfRLQzzjjDOiGXpPqFlOAcueyyy7pNNENcPDnTUzIcE2V2W2yX6qxN6/vttx8mxkvMaImyFgvHgZd++NVZVWQLBE4//fQ0z80fyi68uw9C9gUj5pJ9GSYwWHImwpOBttNOO2XX+S9aRU5QRYoXSgZrhtezsaGQXNZ8tZETSjBkgyV5/fXXR1QomuxtJuwbs102RH6LbY455rAfJ/8IB63B94g5F7eYzglYY401KOUoUgYt2NkMohz60bZvtdVWPqZiVSVJpbO9amfraWFQEItERKjHi9D7kTLxZRxaBE+lAxSLm+7od7/7nY6RPvH+flQBlhbJpp29LW0L4Wd+1z02xdJ011KoJsoS4zYQqIEAtURGTnxmWYKXXnrpshnu1q9GJYU8KoCcOJildGUKMYYG8ivww3lZySiEbzRDEDuKTqeRE8qII8kWKgS/7ZoojSiYMvCzwkIiOe0hJ7QNfglNxwMgabPNNlsh4La6EhQXvPbl8VbyMc34kVa32231oyicEZi1sVqsDiTjN954w4wiDWNZzDTeLBRi3izWoT3rqjZESfeLr8qy3XnnnSZ8doujDGVXhkZc1EbA9M4yHHfccZS9lF1ZSjsvCiAnTPHU01mnGYLSNSMEySupkl5//fWFFlooy+PCAZOZXw3nTil8k1KGqaaayoVvRLpt9V8yk48RZlZDBsKtoEwebHUHmqsfsIwHRDoRp3nQNVfJkCmVOC8zCmvmJ3IRNaBEjA4BDkUxUrdtm1S1gU2EHyOZZeOowvcmu8WHBTnJ0IiL2giY6umTZbZj1pMCPJvqyY+r2jeN9qh25Q09/T8y0FCx0sxU1WWmeKrhJZZYgqZLNmorLD87CoUSe2nmWFzquJIGjHNM1abb0iZaek03Qniy082u6RVWWAE/y4TV0hYLqZwU6Ctpuwm3ND91Utb1ih9BIQhUVmLi+Un3pc5YHAspW1qVRTqSklwfmUiy1onyLDrplqMn9it7FBeBQBMI+IpaCxgXPD2DAgYLpcGm8Dzyua5GXZpoqLRIAeSktLp0bSTU2b5uVjUtnu81dTDriJFUZu54Ci8Am04QkhVXXJGvFH8b+zk63qtBO5BkOL5AWc7zzz+/lMPN0ofqRZl7ehpmNV6kcv1Uy9kGuEiW/E1uvvlmsWHS/lkilJ+mLRZbMjvYtzYMP5poNQIEFJwlZS/7AlYeZ89LmA7GhRBEBx544IBrJ3+vWkJOyFz2Q/BxZm90getnbCfEJMVX/k4XWwPWlQjFo8aWQIbcZNoptolW1CbiYSuq7ZU6kQfm96y3vr9WiB+NFq8E3L2wqbgz7BhxkxLMWjItsQtJLaYgaZhLYVZDOy+wWcOHD+cUQFHJgSLbtOgrQHWMndTtdvYn2hoyCCRGhCsjYRc5ccu2jbk32dhUpPOhd771L3/5y6QTK3bgLSEnqYuWdGY4oXlICplie19gbYRBHgEFVhhVtRQB5CTzgPJ1tmzoUZ2SnUgI7SVtKgaNw146xBelIeMTQCmaMBCKE+86RU4gg5Agh3xA9AFnYE8lSYVPox3+BBezsaXoReVDFQFfWrsy8O5vvfUWiYTsK04XB1qb5A0Zm4JvFpMpUZ3CQWghOeFdk8zvLtCSTJdtDPjEypFkienCN6IyT6QEAgkBk4S5K11TEBOFrSJfYeuExi8T3fA09jDZ/4QXI6+gN4R9rtUdh1E/uTXbomwXcGY1IUXZkarPhtPxHkYHegUB55qU6nJt5pPCsMrdye69FMLO5CeXswrbXUBeT4ZtAyzWFP99rMbSrvQKgjX6aaHWPyKZa7CofDdrVFW7rB7WLl42hAK7XbvpPN3OU7ZsvOm2oVGX1UDIUJxyEqd/ySWXpKfC3jHaZSeYWi00rvzOM7s3OiSQCYpidZWyOGWVl93m6WdZVZW3uEXxx0RbsUum8mmelIa6LXONtaAbNeZznrKVA+yJbhc7ZCA0NOpS0I4++uikolcDb09yCb094Zu7sC1WSamFwFACozRSeLEy1KUiBTIuWm+hdFI64LgOBFqBAHpA5VUaQIVFBAnJmAAkh9WEgJKF57KKkBMbP4vly/KMjnbLL08NUbafEZh11lnThPdBxy3ZCUvkFYSJsC6d+leQIcdq0f1S+XKjn3/++VthOPEKgpz08zzs+bFbP4T3zLpuPPzR2dtLPdetKHuhLLPEjsnD1i2QUdqM0vMQxAD6HoEUTyjBYFYLCcFY4hYvRaklQAnn1URLWB+Y4rMtGYUjF+SkcEijwvYhgELYW04XzL82tSp+iWgL4ilgyrJ+MMuXkhNxBFgmlZWY5YmLQKBHESBqZNIJBgurhKky/y0EAUr4oxPiqX95c/GzRUuQmWykxcroQU4yYOOi9xAglwiVyiZPl5WED6tItB42AIGMPLXMLDA7OTLqYjnxu7fAspTeG3b0OBAYCAFTHed03XXX4ZPEy3AUkPk/4YQT8mYksqy77rp0qqW0ZKA6cqWFKf57BGr8EtkfMIOXN2B6aWKN4qXZXKutocxlxStvq9WWp9t5ylb2sNFRD1hDSrSEBHwTVzQRFXtm2ScFUuUrydAtfo/oy65tOOcoWdvgPGArDb2dAWvoSGJD3c7zcvOUrUSmJ7pd7JCB0NCoS0HLpBNUhDpLqFMkhO097bhyi+VinMc/VbJQBUon+t/v5KT0reR5o6mepidENF32Iga9RSztjc2yURljx8j13Lr4RKb02WefnV6LT5ctHQzyQkCK/YOoJAZNCk/KrIbaF3nebO2aW/o0T7fzlDWoPMXzlO3DpkvJCTP7Nttsw9exdF4R0xObVZqYroslJ6HsqkQ4UnoDAfxX1lHXfB9tNxFdNbFg6A2yYRU5++H77fIjf39gqBQ/Fz5YmbklqyQuAoFeRMBkTt1OF8kzpcx3K8vT0gEGOWkpvFF5qxCwPHLG3K3Gr7Wqx1FvINAaBOysyjTbqIiAj2+++WadTdlgXmfOerIFOakHpcjTjQgkOaPpnkXYhaahi4JdhcBVV12VeCM8FpmbvpcsnmSUQfu5xx57DJqn/gxBTurHKnIOKQQyhm5IjSoG038IML+nyYycMChynZdSaXVvAzBBTtoAcg83YVIK188mEVs0evgttqDrInmIueJ84hbU3ZIq7ePTYSKpT61AIy1po3qlLV1HNpRkvJGhTTnllEIIZynVO1X8k9jGVTymQ6nGc845RzwS+8yH0qBiLDkR8HFcZ511itWT5OxS7eLUQWJYOfvZZBbm3BEgtfMX/rSl64i9JP28F1qvzBT/v8m1/hc70iAnxeI5dGo744wzOB2KdjV0hhQjKQgBh7U8//zzBVXW8mp8TZ0yJ1aVUM1s1HzHs1jULW97pJH6ah0FOWnDjOrJJjBxIv+I8NO1vecyn+dXfzjhrkWgIx17/PHHha21G7QjrTfR6Lvvvmsrazq31KbxxRdfXGzdJupprkj3r6PmxjVgqbCdDAhLJI5kx5/fI488cuyxx3YhHFTDhx9+eJ6OUTFnx6LkqaevyooHJcTA8ccf3559DIVg6xQZ/k7pyEv9t9fVMTOF1FxPJV2+juoZQv15gpzUj1Xk7C4ERI/I0yGBKPIU78+y7CVzzDGHvaJXXnllryCA8gkxorcOlSFwMy20U9nVBpQy0p4uSv+2ofXSJoKclKIR1z2DgDXjyOue6e6Q6KiTxlkCnOgnANrTTz+N03dBd5QiDnT5EB0BIvTnaqut5rDO8ccfv8t721D3eNlljsI2YxHFaPPq9OziodBQW7UzBzmpjU887V4Ecm5j5Poc5pOG3q7v1NRTTy3UplK2Xrt1Drmwtd0v5zlz8OyzzxYntPRokIbG3s2ZK7cx1h8wu8DTGEEU5KSb50n0rXkEiC8WFa+e5quIkiMiIMi5X0qj7HIOOfXRiFm68U4A0KOOOgo5EVg3RR8RBtT5Bd3Y16b6NGzYsEwWITsKR7/kkktyGm6qslyFgpzkgi8KdycCJA/+PA7xxXxx5skWW3f2thd7hVr3ys5Wxz9DePPNN89w9v294447sttev5hrrrmyGe4cUq4H7FtZSjtHFwHqR0DbIsnzGvIUz1PWGPIUz1O2s02P8PJaeZMTolZ2rVbdebqdp6w+5Smep2wfNk0ET18tBN5esS222MJ2MapgMCY00oVrmxzLvm9c7aUX8tNKSCeFIBmVBAKBQCDQRQggG/RdzgHylffTMykuJJZRlAI7HeSkQDCjqkAgEAgEugIBgojfD6Tke1ril123jqIEOUlQx99AIBAIBIYOAvxQMvpROiqJpbfFXkeQlWLxjNoCgUAgEOg8AtX84AekMUV1N8hJUUhGPYFAIBAI9DUCQU76+vXH4AOBQCAQKAqB/7H4F1VdN9RDmmvadSFPWWPPUzxP2b5tum3zLefbaVs/yxrK0+08Zft2QuYBremy2edODU8++aQI/H5lM6H0NsufXlPpozzXWg9yMgKATb/RVEue4nnKaj1P8TxlO9v0CC+vlTc5IWpl12rVnafbecrqU57iecr2bdO15kFbnnlrQ5OctAW9aKQYBEp5pWJqbEEtOT9wLehRXVWmBV5X1sjUBQj0xFqohpPJNjQdhet/KyCYe+65qwHkcOkaVdUuq87axcsaVVuNtioz1+h27abzdDtP2bIhpFsVDpgeiUUh0P2TqnKksRYqMemJlDDF98Rrik4GAoFAINDtCAxN6aTbUY/+FYRAEzHqq/njF9SjqCYQ6F8EQjrp33cfIw8EAoFAoEAEQjopEMyoqlsQ+PGPf0wKSYYZh7kKXtQtPYt+BAJDF4EgJ0P33fbfyMQpQkUQj/fff//jjz/++9//jq5MP/30Y401Vpyj1X/TIUbcbgSCnLQb8WivFQgQRJxY/tprr11//fU333yzs7I//PDDMcYYAyH56U9/6oRzBwoRU1rRdNQZCAQCCYGwncRM6HkESCSEj+HDhy+88MJ77LHHPffc89FHH2211Va33XbbLbfcgqIceuihPT/IGEAg0PUIhHTS9a8oOlgTgWQgcYjvSSedlDIuu+yyv/vd7+add950++tf//rcc8/tyNHZNTseDwOBJhGofy9R7QbS2qmdp6GnQU4agisydx0CdFw33njjySefrGcTTDDB/vvvTy4ZddRR+RA7uPS9994777zzpphiCkaUUHZ13cuLDjWFQFGGQIvCr6kuDFwolF0D4xKpvYIAw/vpp5+OX6PpuvXWW3fccUcGeesNLREOb7XVVnv88cfJKxRivTKi6Gcg0KMIxBrr0RcX3f4eAZTj1VdffeCBB9ZZZ50bbrhhzjnnJJRI9Oi0005bZpll/vSnP0022WTLLbdcKLtixgQCrUYglF2tRjjqbyECZI433njj22+/Peigg3hwoRmEkhdffPGAAw64+uqrNUw77HriiSduYv98C/sdVQcCQxGBICdD8a3205h+8pOfGK4tJv5+8MEH55xzzvHHH2/TiVunPuy7776bb765a2TG3/gFAkMAgaIMHoVrgIOcDIHZ1adDYC+58sorySLffffd2muvPeussz700EMoSoJjwgkn3HjjjSeaaKJLL72UfSVzYpGyxBJL9ClkMezeR4AIbs7XOQ6Ex8zPPMFc+Em0IvyskZ/97Gd1VlVPtiAn9aAUeboUAY5bn376qVWx9NJLWyeIyuijjz7uuOOONtpoOC8Krr/+9a9lXQ8xpQyQuO0tBDgoYpsG7bP5j2AID/HOO+988cUX8qMrEv1FTmabbbaxxx579tlnD3IyKJKRoS8QsDB22mmnRx55hEMX2wkv4b4YdgyyvxFADAjitTHAWn399dd33XXXHXfc8frrr3/11Vfjjz/+PPPMM9NMMzE0SkdFFlxwQZJ67XoafRrSSaOIRf7uQoAIYvF88803lAB+WecQm3TtaZboAoOWXL9KE+M6EOgVBMzeX/7ylzV6a+Z/9tlnF1xwAVqS1GLzzz//CiusQMc73XTTeYS6ICoSy5ZGjTrrfBTkpE6gIltvIGCxIRj6ausJYd/Sot2iH3DdGwOIXgYCgyFQyjZV5jXbxRn6wx/+8Pbbb/NGselqjTXW+NWvfjXmmGPKLP4QwUXkIdcWBVmnsoamU1pCTkqJXsYkNt3FKFgNAUaClVdeeZJJJjFF7Ax/9913q+Xsh3QLw2R75ZVXbEN57rnnhIPEiPH7WnLJJbfbbjvhILuWojDwvPTSS97jtNNOO8ooo/TDy4oxtg6BJJowKxJi1lxzzZVWWklUCDwWBsvqECTiqaeesiWrFR0onpzYnGw9Z321wpPN54QTTmD/ydLjIicC+As+S+OMMw4qYl/FBhtssOGGG7755ps5q+3R4kSQ559/XhTIf//3f//888+NwhJab7314HPkkUdyIz7ssMO6jZzgunSYW7Pgxwl2/MFuu+0m/lixPGOPvtPodhMImOSoxWOPPUYo+c1vfuNrzDlFPRRcPssXX3zx7bff/otf/ILhpBXLoXhyknq5/fbbC6ZkGJw46e8IX4svvjjayCLUBEZRpBIBcsl44413zDHHXHbZZauuuqpYVUsttdSZZ55ZmXPIp6Al1157LWt8+i7bz2j67bDDDjy+0tivuOIKQSG7CgcaiVVWWQXxY1bddtttp5566gcffPCmm27ab7/9RNfvz/fYVS+oRztDBHn66afptYTWXmCBBZJQ8uc//9lMu+qqqwQcwoauvvrq00wzDY1ZUgsXONLiyUnqHJaQs2bWUQvm1FNPFS0cE50lxkUeBOhGkOq09xuwyEmxPn95+tbOsqYZX2EcPf4LB8Nj+IgjjphlllmyPrz88su4/m4zv4tZaYWLDUP5kBRcloYN/DPPPPNZZ50limUWETkbSFwEAgmBGsIrbp5phFDOCZj4y0uYV7H4Qxh6TsNMKXRfZpop10vkpOzF46OlpGUjmNLZZ58tbB9GTEglI7d4tt56a8H7uCLAgkObYOMzzjhjWSVxW4qAj47zPDAjEsWk8vdvf/tbaYYhf221nHLKKYKsEEqScXKqqaZadNFFCfV33nkn+oG6PPvss/bJE/l9vgkEMBHCS1zIzoLjrZGlsJD6X2ossdr1Vjh9zp1BTjr7jrq2ddOYLmvA7rEs/OMf/0h7TXwfTLBnnnnm/vvvpx+yQHyE55tvPg5dTK1+lg+WdNJJJx2wquYSWyWdZL0R7sLyNjYcIm2MdLp+MpcVvthii1FKXH755XvvvTf6YY3xQMBpMgnYz/zoo49mlcRFJQKA9ROJHTFmNaEhSZJKZc4hnGJSWTyWCkvJ7rvvTimcoq3QqRJKTCqb5EGEfuBaEslJ/i2dxQQJZOBJpp2yntBb+pUlxm0gkCFgGvM08bX0FWV1X2ihhWh3M0OIp7grjBRTokR53nrrrfTU3y+//NJxpQgSooK6YLl6g5wwvyfFXAq9Z3jIg2FnoIikxDjvdsUVV+SBABeuCGmp47JJLYhneIVlcA144cBaJgEsLZ37sccem76kA+Yckommx7rrrnv33XfTbjE28ODKhnnNNddceOGFKeDK+uuvv/POO2ePuuGCEVE32Eu6oTPRh95CAA1ADKh2rfonnnhis802S4aQNArSCdsJkXettdbi7ZkIiZXiK8FXmDMU9Q/dOJ2qD2/hluxWSSfEjqStNh7kkZrYaieIDBs2LA0bT50u0qJilszYRioLZkkFa6gIe2sGtKK35hAFDk7EfMKttKKJnqjTBkaLh4tt6i3tFicutvd0a+uWWyybX0rB5aSZ2fHRRZDjjr+CXuyAr6LN7eKmIAbYdDOfXSCb3qgFsQMjxb+LvYQRnqMKNyjEw98pp5xSQR8N7DuKgmUvFoFWkRNruNQUT4XnLAo+kRk5Se5rBpNEkGRcSWMLoaSed7zJJpv4jGJA6Hn8FKFRpfmpp+xQykOXRSzj+oFycIK86KKLMGgIhpgrTI7kEh4KyWrSPaNOxM/OmMou0YPtuuuuLEC77LJL5dNICQQgkIiH7yR6kH4ZOfFUCgGFmsvXYPLJJ0dInG8911xz2YPlkb0EFK20R3IWzrK3ipyUvXWeNhzU7rvvvrL0uG0aATKcslzmshrOP//8E088MbvtkwvMF8rh0+yHkLC0WzAmG80qzw5TjnKZ3xfbSRL8uwEW704Pb775Zgu+LG6S+GO02xjJbuhn9KGbEcAzoSik7cR/u0AtdNhf9gLrAlMiKCo/HTZFeZhbsPXcoBAb2qBWDK1N5MTKIWRx2WrFGPqzTobc/hx42agRCQZ5QskLL7xAJqZZFY/ID12hBsSF7bPPPtRKJOPuISfEStsCfvvb39poxvEkk+NpIQ455BAaDBGWyoYZt4FAKQLIgx8SYragH+TvpPWVKBtBxBTaZpttmKVNNhm4OGGtBPK699576cltSSkVaEprznPdKnKy5557Io+pZ8Quzl2urZ88fY2ygcCACGDT8Fz0XRxXZMCLOTVro402StY4/m/M8q1YPAN2ps5Euiy7Afz4bnJopP4mXXFO4cHJs8CCr7OeyNa3CJj2BA4RtXk5EUcY5xdZZBH0A/Gg4yKRU3ABx+40IXzMNFIvuYQoz0rPiIK7Qo2KRa9V5ISVOOuocElcEdAS+/4lDjoGtqYfSO//RITN6omLQKASAYxYYupJJBgx0j0Gn2iScqIi3DqYT6y9yrIdTGE7xGPhupC6gw8+OPWE+w3+kdt3BzsWTXc/AukLSS6h8hHqESGxBJKkgpy4oEplT7Ui7Mqw7wQhMdlklshpnj8kXt/SGPRT3CgUxa8xq7d2J2zg8svy0FQgp9mtCzu5/EpT4joQqEQAe2XHkn2/n3zyiWssCKaMu4u9gbi2pASw+wRfNvfcc/twJwFFjG4qpsra2p9iSfsW+DH20NFhGG0ra383osXeQsDctkuX+4mZj2DQ/aT+46vMdt5cvDkEFbUK8PE0wAgJx3Srg+J3hhlmYLfjCCrdV5dXreVQ4PCLJycFdi6qCgRqIIC3EriMQ+Qll1wi8tWhhx7KrM0ab+UQU2gAmFJwbRYVWuJRIifYlxp1duQRntGvI01Hoz2HAM6Jaos50FS3BBAJc9vftDeWizBhxS0dLx4FsbGfTzbEQ0FFcFesLLZt0An3zL6TnntJ0eFeRIDXFgaNICIinCCpaQjIhhA+LBBoiRQ7nCiLMwkYsenFkUafA4GEgNnOakA6IWHgjdjbbUOh/mI7pOPlzWU/PKuhOI828yYXeeSEUMLiYOOzguKlIi08vnBaxaIa0kmxeEZt7UYAm2aBYbU0jGZwXGGKIPKnfvC4Z7SzqKyflGJpdZsdJXUs/gYC9SBgAjuQwnZFBhLihXhU1KREEMouP5IKImH3oq3vTCYUYkiLsI/keLyXkCo2MJJj0qkWGY9VT7v15AlyUg9Kkad7EeBlS4QXsAtfZtOG+Aupr1g2oRn4d9nnmNRc3TuG6Fkg0AgCaT6jK0mv668UPFMiDzgnGmDKXtsVeQwiJMzvdv7homSjKENLbInXoJzEmkZaHiRvkJORxL0ZBKTqj/OUrV5rXU/yNN2psnUNrMFMFgmHKI5SDz/8MH7NwYtYMIuH7stORmssaEn9iPboxOhUt/O0W/9LGTAnEoISJGKAivihDX4pM2GFjEKdJWCdaBHJXshjmFcxLydashYdFNLv5MRrKH1bXlJZSunTsuvKnA0VL6utods8TRdbVrfbNuoBIbKEiPMUx4iKayxbyoaQRFCsARGrllg2MRp6rWVlNdFQ8Wpdqic9T9PFlm3nqLWFkUoCimsz34RPHfAXd8VjntXQqSdUwTgq+5nI7nb7iq4rECQ7SivYrH4nJ6CPX68j4KNgLVlRVkjpIvFFqxzagImV2SIlEOhmBExjP+SEgOLCX/PfQvDTbYZ3kd9outxSBdN9XXfddSIQ2yrLymhjE6O9/BnvVdRIg5wUhWTU0xkE0pL4YXF9/2fQTtSTZ9BKIkMg0FkE0AnSicmMkWKWt/WK+2/qkkfshTS9gkTY0uQEBzGumFJkEHuUl2M6Pi4RnmJHEeSkWDyjtvYhgL1ibGdX5BAsqgoBv54VYidXtx1/0j7IoqXeR8A2Rv4mFLmvvvoqNy36K0YRzlo2mti96IRWbl0unB3HS4XTMHsJTRfxZcIJJ7Q9i2WRvsvagcT000/PY6VASIKcFAhmVNVWBMglIl8Jyy9OqtPYRFJJi6R2Jwr3ta/dXDwNBIpFAM8kXEoyDTK5i6pAnWU3CWEFXbGHEaVJa8G1gz8c7onT8pTIkqINIUKpS/ZsFdu3ICcN4GmXKV+OOHu1TsiYMYTLFfm4cBVt1gHCO9FEtBIxEznjlxpOsjxlF32u7PLpwbFmmNCktzOyCy9V+7R93QQrtEki60YbLpwFYPFi0m2/6GmWgmndESYohw3wl112WTpyFIAIhg0oDlD3fg2QCE6OsfSkWyBp2lsgpRJ8Fsq6KPyDnNSLpDexzjrr+HgFOakTMi6JfEtsJGzphyOtEH/Tb9C+WWB+g2YbqhmcMCaAsdNf0gCJdwL4t2ewYuFsuummwslQxeCaH3roITHW2tP0VVddZQcS2omvR1HuuuuuYpU87RlFagVhEEO+8pcpAAAetUlEQVQFOSFq0F/ZyWjrIsmDUsvQ+Mq7RnI8yihHdlHWz8IXQv+uqzJkB70dPnx4KVs3aP5+znDGGWfwROySSIv9/CIqx+7w4+WXXx5XlH5toyW+aDvttJOQncIRMnexHp922mmV3WtFCibdKXNbbrnl66+/zjTNobw0BG0rWmx1nZS6ZA7HR+2///6CPhgObEkkNGAZ5XAhW+KxXAz4yzIX1eGQTupCkoQu5L7I53143GFdAI2YierJ/ikbCY899tgRn8RdhxEQTdZeBF9VTC5v0bap/hzfJH4tE5fx21XHCFy44r4asqgXW3Q6t5SezUmXYrZXy9wr6V4cP2B+JSQS116onhdOHhpFI6STwRGjbraJ1HF++JrBc0eOkUayEZfPFaVKgNFtCJBOhC5nc6J0Erc/fYba0EnaLdoYBOziiy+md2KGJC60oV1NaBQxS5HYrWVes3POOWd7mm51K7RVxA4iCN0XWhLkpNWAF1C/c1hF4uSvXUBdUUXRCCT+2t/6f0V3oWfq8+mhcD/ggAM4AlE60TjtsMMObe69I2ZffPFF38G33367PU2bGGxF/joOZOGFF6YR6nVlVzbVAZiuky4rIydZhkEvin0FoewaBE9yMUuAM/I4dDsaE3fjgrzM2DVIyXjcegS8DjoTq8iFHzZt0DYpnWk8Bs02JDP4iIu4nIaGW8cn7bbbbm0eqbMDtEj1xPUIXWlb68LwHHjggXbw0VcXfs5H20aRGiKLlLVoFSCTfh4le4kLNCYjMGX50y2PL78BHzWXGORkENySzjcdvypCp9sdd9wRh8VxYpCS8bjFCFgt3gUHUFZlXwpEovbiSd3h0iP8cIu71qXVk0gcA+NsGM4/upioL9DwsK3usYBRQttyFCYeaWuBBRY466yzdIDqv9VNq9/B6WeffbZAI+l88Ta02LombCtxBFZZ/Tag8Pr1dYKzSCo2yYtO7836leUsvRVXmCGtNCXndZCTQQBc5YdfynTllVfafU1kHqRMPG4LAnjto446ir/pSy+95L1wA61HOnFQY1t6142NTDDBBJdffrmImYcffrgv+zHHHOMkjDbQElj4bKEcPus4Mx/E4447zv6P9tASfsnmCXLCcJ1sRTzXE1XrxpdUR5/KXplbw+HcZW6nR5ZGWZ4Ba60nz4AFqyUGOamGzADp0PeeBngQSR1CgI8QH3xfJReMvfWQk35+g1CysXTrrbem8AEaceGEE05oz6uzN+LCCy+k4zr//PO1aBvjueee256mMRwaSk5lqcVhw4bdcccd7Wm98Faop7y4ymp9nfxYxTjvEVawwfUouyrryZPyvZBbWyDKU3tHysK06RHlKWuweYrnKdu3TRs4xeMWW2zh61DnrnjkhPmk0ZmZ8+002lxR+QfsttXBdxb1TSqvam0NWLZa5sr0asU1TTzyqyySpVQrm2WofZGneJ6yepWneP1l7aSphgALIiuRQxhtIkZOqmVL6ViKArkr/W94XdXuXzwNBAKBLkfAskd6O9VJOslONT1k2q3BLpc9KrstQ6D207LM9dwGOakHpcjTvQhQmwitmvrXHl1892IRPQsEOopAWAI6Cn80HggEAoHAUEEgbCcjvMn61ZcjFPvfmzzF85TVfp7iecp2tun/Bb7l/3NC1PL+VWkgT7fzlNWdPMXzlO2HpmsoqdhL+OzxnRPGpka2NF/gXGXiNJOstiAnIwAX83gEOOq7yQNanrL19a6YXL3Sz7LR5ul2nrK6kad4nrJ923TZq2//rbcWyq72wx4tBgKBQCAwBBEIcjIEX2oMKRAIBAKB9iMQ5KT9mEeLgUAgEAgMQQSGpu1kCL6ooTukQQ2G3TD0nNr8Tg3BJrWegLdT+HRbu6bZoHsPu63PWX90fmjuO6l/CYHAqQ8ZImUXDpeuUVXtsqqqXbysLbXVaKsyc41u1246T7fzlC0bQrpV4YDpkVgIAr5NPTGvKgfbE92O5VD24kLZVQZI3AYCgUAgEAg0g0CQk2ZQizKBQCAQCAQCZQgEOSkDJG4DgUAgEAgEmkEgyEkzqEWZQCAQCAQCgTIEgpyUARK3gUAgEAgEAs0gEOSkGdSiTCAQCAQCgUAZAkPTUbhskHE7JBEQ567pcTV3iFbTzUXBQKAJBByTVW3zQNpRVO1pnW1xdHaUnL8pP7fyf/7zn2VlHf5YllLjNshJDXDiUSAQCAQCXYcAAvDll1+iBA69b46iJCLhJOA///nPn3zyyddff62eaaeddqqppqpx1OOgQAQ5GRSiyBAIBAKBQIcRQEJGHnnkJK+4dqD1XHPNtd9++zX69U8H+j7yyCNXXnnlXXfdJZr9p59+OsYYY4w//vjffvvtoYceutlmmzVaZwZN2E4yKOKitxGwxvBc6Ydxs/b8/jfh35o4H7634YjeDyEEzG0CxPXXX08oSWqul19+GSWQ3tAorYIPP/xwq622GjZs2HHHHff0009TcO2xxx4PP/zwo48+us466/zud78jrGiioWqzzCGdZFDERQ8jgGxQ+1oeDz74oIVhSXz88ceYLDzXdNNNJyDNAgss4IJE3zTn1cPoRNd7HAGM0SuvvLL66qs/8MAD888/vzmMMDR6lLX8n3322XrrrXfPPfckPFR4wAEHzD777NYFyrT22mtfcskln3/++bjjjttc6LAgJz0+0fq++5aBxUZsP/HEE/3FvtEAbL/99ri5W2+99dRTT73tttuANMEEE6y66qq77rrrDDPMkMeG3/d4BwCdQSB98f1tunnk5Pjjj0+0ZJJJJjn44IM33HBDa8dy8Jcd5eijjx5zzDGtlOZoiY41KdQ0PaQoGAgUiABaYoEddNBBK6ywwnXXXYeWrLHGGvS/88477+KLL37EEUfccccdU045pRY/+uijM888c8kll7z55puJMgX2IaoKBNqDQJlqK0knKEE9rdNfffDBB+edd57MK6+88p133slG4hotsRz+8pe/0HRdc801SyyxxNhjjx3kpB5II8+QQsAysJasAXwWK2Ia29JLL106SHTltNNOG2WUUVLiO++8w4b5+uuvhymlFKW47i0ETHsT+L333jvrrLOI4PVoveS/+uqr33rrrd133/3yyy/nxIWQSFSV26WWWuqmm26yTDbaaKM8AlAou3prIkVv/wcBk/6qq66yGE4++eRSUF544QViSmYgwZRZNhNNNNFf//rXlO39998/8sgjN910U9aU0oJxHQh0MwJJNDHhGQX/+Mc/msbPPPMMXmq55ZbDQiUxvXb/n3zySebDQw45RCXkD9wYL2G3F1100X/9138pu+WWW1oU2dqpXduAT4OcDAhLJPYAAhYDvozlsLSvjz/++GSTTYaEZIkWz4QTTpiRE+lklLfffjvLEBeBQHciYOpmHeNpgjciiL/00ktvvPFGli6PdL8spdoF4QPVQUisGrrf888///e///27774rP0fhjTfe2K168qiCg5xUAz/SuxoBC2PvvffWxZ/+9KccH7O+sihuvfXWo402WpbigsfXY489llJGHXVUtpb55puvNENcBwJdiMAVV1zh6+8Tzy34sssuIzew/JX1E2NkB4lstZVU9FqIUHIPm3zyyTmtUPmqyjryaPnll59nnnmuvfZalKaUFZOBTaWsxRq3QU5qgBOPuhoB895iWH/99UkkZ5xxRuoryrHzzjufcMIJyAYR3vLg4vXss8+mp3YRDx8+3MrB61lFXT286FzfI4AAoCXEkWRCL8Nj5plnXm211VjOX3vttbJHlbeEGNsVFeHZmHbUjz766HgvRAiVuu+++5577jkNcalfa621KkOtVFY4YEp3rShj84EYsKMtTeQFhGJnTaTNotltXHQtAiYM2fykk04ibSAhiWzw4KLa2nHHHWeZZRYLg3OkdMTDW7Zji9XR+mnzNKvGOba5G137HruhYzZbcHniQUsRdOONNyYtUGc7luRvXlgZOSF223fC5d2s5qbI8lF/DymHv/nmm/3333+XXXah70VLlKUZ5lVPBBlvvPGOPfZYDRHuxxprrPqrLc3ZReTk17/+NcsSsatSoCvtcSuu2aCQk3/84x+pcl8fO05b0VDUWTgCxHwf5c0339yerHvvvdcuEzydb8G+++7785//nL6YjOKaxZKXl9sky7fzO77wwgvbfVY5cELSOeecs9dee1U+mm222Xg5V6ZHSosQ8AG99NJLxxlnHDNn4okn3mCDDezJePPNN1vUXJ3V4ntIFTghVMTnHg1g8DDPiSx4pu+++049ZbqpajXjuvA0DPgrrbSSCCuyqXaTTTaxNHjSJzmelzDOzLZ5ppRMQGnIlNIt5MQ4b7jhBoO85ZZbsJalskI1gIpKpw+ZYoopzj33XG+oqDqjnnYiYJ1YVHZg4dr8LEKcgb8ojdVIG2D56Y+UOtdesZ3XDRXiAXWmtGaMsC9CGePC4xkXWU2aKS0e1wUiQC7xvT7mmGOYKEwhLDwpths+CCYttoMK19aQFVdccdJJJzWZJTYxQxCGu+++W1m4UXnR+q6yyiquLQqPqMLY+Vkif/aznyVHrybg7RZygk1DDwl3mDLO1A0JcU0Mu7SINwRNe3xmnHFGQQgQttKncd0rCPhqJ2pB8qAXzrptbWSsVpbY/gveyWUOAqkPzz//fNYZ3whqB5OQKiNLjIs2IJBIu50Z2sLRIie+qm1od9AmTAlfJ9tEfO5dV37ozfY6SYuciZZw4jr88MN/8YtfpFv18znG7pChd9hhB2xZ01xXV5ATHwIkhMyFilx44YVnn332gQce2DZL6TTTTOOlil2TXi0XIDt9kmJx0JcdGTqIgGXQwdZb0TTNgy8a0539Aa2oP+qshoDvDzVp+rzSi8pWJjVWK9iG9EQtkoybmkuq2iSm6DOptx6Kkmo47LDD6FfVkIQSf+3z9b2l48LuDIVtjLfffjtRjqiFhFBZElCYwjgttOFVaYKQK2IgMoaQaFSUDop4dt32tB6tNIeA9XPKKadkZS0t1AXvZnXRIPkrgxQrLWm6XKcllBYekZR+IyveDRdPPfXUUUcdZdP+Ioss0g396as+2BvoxxuQ07lPkM9RklS6DYTEZJvnVPQCCNGDMXiIDZwIYe3eyjPTTDPxRknZrAg6NIQkWRkk7rTTTjy76qmqWkNdIZ3w8rTUiWB66S9ycvrpp7eNnIgx4JcA0jTDKUNoNbwivXsQSLoj5IGB3WZG65+0/tVXX3HoWmihhZhPHnrooeRcr88C29k8LC63dUj3pUibB5KZcLJ2cTCcMtOtUdA28GPGVGUZ4qKdCMwxxxzCs3PfEG6Ej1M36CdKjW1IHcaIT/ATTzzheyX6Q/ruU9P5eKINg2KFFOG0jIuBhJeBr64AqWkXMK+2bbfdNpkY6qmqWludJyfJCO8oGKAQMH0jmInIKwbMQl6t3wWmM9jw5aA0VCfE65QcC+xAVNUEAmaLQCmpoOgRQgUjHhbYnHPOafKQOD1CWhghfCOk8/60S8tS8aXgwNNEizmLoBaJtczqsQkgu6av1//ddttNPJgsMS7ahgCNt2g9FD4CI9qB0bZ2azdESYPPwAD5KDl5wTUfVM6+paW4e6F/HvmVppddq0HALl4eXAyI5hgvK0IecxKjwybvHEYLhNExC3+XamhIiO88OUlGeCS3zJuLWwU1Xxkorbhl46LgslOa24PAtAj1BRdc0IqGos5iEaD2tRgI7JzLeVKkyr1KtCTZErEmbKqWR5pI5BX+e2kXMXtjUoIV26UatelDEqcGzGMVSKdmGfBpJLYaAS6zBFafbyxs4mKpvjvulePkHgPn6eoYkmSEL9VEITOYpwUXXJDjL7sIBqsGSjKb+dNPP738JBLURX4UiKTuFitD7lEPAzaJudRO00vkRL8ZwQhf/F4yLAzSRhsLLFlTsvQWXdi5g5IhJPzwCIMXX3wxD/QWtRXVFosAkoDtyGiJyvmrZE2kFWg/o9VIG57SyS6+GjYWZNk6foGhob+mo3OQUcc7058dwJsbOIVPNnw7PJygk9125CJpn7C59KKlHSBLmfMcmimsKMFKH9W4Jo5grfgZGSYSkqQZ1hQfW5YFH2EGY9K8DOSVGvXUeNRh6cTats7twywNu6S799xzDwdwh1na21ij94U8wsk6cMmbowPxkkopcyH1RyUtRaBsrxmvitLmvE0HMlKlZuTEU5GLSvN0/BpXaBIuu+yyHe9J33bAGYVdOHayCDGiVLu1zDLL0PFSWAnxQMJGS5IgPmjnqXmtBYIOv7Xkm05W3m677RAPAVLJKEnW0RaXBDVnvvUNmVI6TE5SqKVMCZ6BwiCPnDDIt4GcpEbRbecHZB2Ii15BgAWC4SHrLUZEzK4kyEvEgpFgSrehSMSRZfnbdrHnnnuWrUzeAfvss48OpOVdakppW6+ioS5HAA2YeuqpaUHNYYocXK/gDsRuE7s242vaoxClGjCOHsJGpFIq4Ua42GKLqQpBMjPZYPip471Y75JY3wQynSQnyCAZ39quDO+K/BoVTzjGeVFlmhhYFOkHBMx7HBZywtEljddpQtSV3OexV5ac5eSiNBw9uV6cCYuqzbaTsnNZ9JYiO5ET8WLdBjnphxnb6BjNXuSENZe/CXKSbCe1CQmDorltMyzDO0HcZ5Zqy+fUtzRNe25H/IMpYxASOdESlnmuIjYzElbQrTolnsqxdJKcoISllqXSzqGrISuUAhLXlQgkZp/xEAnB+2NNBA82oxhL+HShKEIPISdCwNEmuSANcIxhnK9f3VzZaBMpfHJql2Im9KudJ572LQKJeDDrDoqASU45JjAwvY4jtqi2lPIttZOJHwrDPgGFdcQqyIQSK4Wvo50rLphPqIVq06rafegkOands3gaCNRAwKRPwROJIJYQ30cGkj/96U/WzxdffIHVOvroo+3JssAEZLWWxPizo0hmfJm1ZNt5mbmuRlvxKBDoKgTMagJEZt5IfZNI1EAtBFDh8ZwSeazR/dIAyU8u5yvMsmD+y4nMWBq//e1vH3744ZSZCZk/SNOiiUqCnCQk42+PIWDxMEvqtAsungLB2rGIveJMQZcldrdDHSjBkmQgD9GeAzGKgkEjwXAH77EBR3f7DwF8EgYojTttWsr++vRjoTySJ2UwyWnDuGmlIqwjhx56qK276alsTO7UWSgNMZ25ztmL7NNJ6PHI9jtlSytMBRv6G+SkIbgic7cgYPGgGak3yAYTZTJo2w/PzzvZ3okvvMAtEjuBCf5iweHO7AQu2+HULUOKfgQCIyLApJFoA2Lg1AziiF1W5HL8EMObC8deWQgK+UvTS/JO+dmeqXyxUPfff79HlgMRhH88HoviS3RLcjwZRUH0CY/FsW3WWWfNmivthaelt7Wvg5zUxieedi8CpHLLzIJZe+21rZPUUbuuMlsiiZ6amO4rxSmyfiiU11xzTbuI2e087d6xRc8CgZFGQgCSJQNJcCGmls2GpHA0I1GRRDxAZSEgBmR0jkukcxtH3JrwBHdkxnZ3dnjZuHvw5kKWaIbT/Kfysl4cEfTqq69mtZVi3xA5+b6gWobSr6ERlQI34HUNZAbMX5ZYo3jZIwXLUmrclrUy4G214gNmLktsRdkB69TugOn1JJLTZSvzMrfvXaJH6Wfl2ImClSsdoJ2P9dRfmidPP0vraf91Qz0vRanadbUhVMtfml6tbGW6UpWJ1VJKm6h23W1lB+xP5ahRkeynSHZdepGqEhuCjYQdPmVLiaQZ+i40I8EiwGhKL/1bWlXldWnO2tea6HfpBECl8w/NL0spfVp2XZmzoeJltTV0m6fpYsvqdttGPSBEZZEwSnfIy49BI/LbbV66dTFxagPW1ueJZXOjoTdbVhaSDRXPg3yepostW+yoKbUqu1cJFJwxT5S9wtMJeGjOox+cg4Xc5rUl5oIiDnNiILFLEcEos+FXVliaUrZZqvRR5XXI+5WYREovISBGd2l3nVpBCVaqyLLYyjyDSfqlReI6EOh1BJLO6vHHH7cdm3bXPpVFF12UuT7RkgUWWOCqq66i6UKfWjrSfpdOWgpuVN5SBNAJjJgIPUgI02Jqy75foRY4CuPCPEVXLKHSQCxcJ4Uz8bSU5LS0n1F5INBSBEgwGCY7EHln2RJrA6Ndvaa3rYs4J5ZFLsJ5zlisv/NBTurHKnJ2FwKJHoj5KLYb9/krr7ySgI+EWFeYMpHGeQYjOfgyAVN13ckQgt9x9LL2kJPuGkz0JhDIgQCeyQ5ER2nxYFSNeFz28PKG92Olb0i7laMXI33vZFaPei5PG20u6wvS9IjylDXMPMXzlO3DptGDLP4rZ0fosTomAwl534+LS3Km5GtvsVlU1GJTTjmla2WpmG3vqn9m5nw79TdUeM48Pc9Ttg/nZHp3eUArK2uuNvQpo/Ly0w2l/MzzdCGFCYSXIwdIbvQNUZf6bSc6H9JJmgMt/MvwS6fJG4/Htz10LWypBVVj9s0/bundphrSHxqt0hEjGH6WkD3wNpowTuq8xcAUj1mzrthUpKQieLfSsnHdBAI28TimSJj0hsr29HJoaKRlmZtYSvgk87asntq35n+WoWzNuvXF9zfthcyyFXgR0skIYJZxByM8q+OmsriTNniyOpCHEEr3QutSbQ9dZdk6Gvy/LHmK1yjLp1YwEh/oGoSwRvH/61+VqzxlM9pQWrcK0y9LTDxadpsu5ClbbGUZym7lb3Rhl9XQqds8Pa9RFvjYI1us7YSoNrTK4r2+HKqNtDS9ctTpaRNLiQmkqFmH06IQtgeFr9eAC6d0CKXXwq6U3ta4NvAgJyPgU20qjJCp+k1ZcVOBcx6djHPAaPNpWlwPHz58wArKyg6Yp0ZinuIDlmXQtoeDidsoupOckDZqAFL7UaM82oAQ1W6iS57m6XmNsgJ4iIpmetdPTnp6OdT/NitBa3opcTMplTbq70NlThKJsxssmWHDhjVEotIZIpUVVqYYeCi7KmEpLAUJEVx68803VyObGFU+nX5htbe4Iie+rb/++o4Cxc60uKmovscQoLwVb19gm4bOK+zp5ZDnDTW9lIDc0Ke/RieRE2oGthPBhhuyndSos/JRkJNKTApLod0SGl11TuAQRJ2umTWssNpbXBEvET/9D3LSYqR7rHqiqqORRa7FjTbU9Z5eDg2NtCxz00tpQD1tWeX136JMfur0q79UQzljG2NDcDWZWaS2F198kYKl9BynJuuKYoFARxEQAG2OOeZYa621mu5FLIemoevygkFO2vGCCJj0A6usskpDzqnt6Fkvt4E7zvPr5aF3rO8CblKmm8m2jvLMJqm44M/aUIdiOTQEVw9lDnLSwpdFwSWiZxZFSqgD0UAbcqtoYed6v2rfsqZ/PWTE6qoXlewfXEvEPxfw/6OPPnJhG3Y9nYzlUA9KPZ0nbCctfH0iD9pV5NQNy49PhRM0ncaR9hm1sNX+qJr+N53209xwxV61eb65sv1cilzilxAQhmDfffdNB93Xg0ksh3pQ6uk8QU5a+PrEzLnwwgs5B59//vma4afP9baF7fVT1QxRDjFtesSkxqbLRsGEAE1jQ3t3Yjk0OnOa2MZYowkvK72y2MZYA6XyRyDjwFCeWt99nrJaqFbcsTZCsPnV6EW1sjWKlD7KUzxP2RqjLu1etes8Tefxd7S0/Kr1qjI9Tz8ra2tnSp6e5ylrjNWKx3KoNgHKEKt2pFW14jXShYfYZ599bGPkktfQwik7K6hGEzof2xhHwKfsdY7wrI6bPMXzlNW1PMXzlO1g07GNsY4p2Y8To4NzstimbVkryqmXjt35jJaM0xgb4rbrV6j4jAQ5GWFJ9uiHtdhJPAIiddzkAS1P2SAndbycICf1gDRCnjxzUkV5ipeV5bbT0Kd/hGGMeJNtY7zssssakk7q14zpfNhORkQ97noHgfpjnfbOmKKngcD/IUA0KYqcqFRVfur0+782Cr1qQH1caLtRWSAQCAQCgcCQQiCUXSO8zjJhc4RnddzkKZ6nrK7lKZ6nbGebruOdFJMlJ0TFdKKpWvL0PE9Znc1TPE/Zvm26qQlSWCGvLKSTwtCMigKBQCAQ6GcEgpz089uPsQcCgUAgUBgCQU4KgzIqCgQCgUCgnxEYgrYT29M4MPTzS+2hsdO3ts7PpEAccqryC+xJo1XFcmgUsQ7m75XlMCBEOj8EycmAQ43EQCAPAr1LTvKMOsoGAvUjYI2Esqt+uCJnIBAIBAKBQFUEgpxUhSYeBAKBQCAQCNSPQJCT+rGKnIFAIBAIBAJVEQhyUhWaeBAIBAKBQCBQPwJBTurHKnIGAoFAIBAIVEUgyElVaOJBIBAIBAKBQP0IBDmpH6vIGQgEAoFAIFAVgSAnVaGJB4FAIBAIBAL1IxDkpH6sImcgEAgEAoFAVQSCnFSFJh4EAoFAIBAI1I9AkJP6sYqcgUAgEAgEAlURCHJSFZp4EAgEAoFAIFA/AkFO6scqcgYCgUAgEAhURyAFFa7+PJ4EAoFAIBAIBAKDIICU/H9nKhlSaiDK9QAAAABJRU5ErkJggg==;" parent="1" vertex="1">
          <mxGeometry x="350" y="130" width="520" height="270" as="geometry" />
        </mxCell>
        <mxCell id="wj3Kwuniex6bTfm9diw9-1" value="" style="rounded=0;whiteSpace=wrap;html=1;verticalAlign=bottom;fontSize=13;" parent="1" vertex="1">
          <mxGeometry x="120" y="160" width="25.8" height="80" as="geometry" />
        </mxCell>
        <mxCell id="wj3Kwuniex6bTfm9diw9-2" value="4" style="rounded=0;whiteSpace=wrap;html=1;verticalAlign=bottom;fontSize=13;" parent="1" vertex="1">
          <mxGeometry x="145.8" y="160" width="25.8" height="80" as="geometry" />
        </mxCell>
        <mxCell id="wj3Kwuniex6bTfm9diw9-3" value="" style="rounded=0;whiteSpace=wrap;html=1;verticalAlign=bottom;fontSize=13;" parent="1" vertex="1">
          <mxGeometry x="171.6" y="160" width="25.8" height="80" as="geometry" />
        </mxCell>
        <mxCell id="wj3Kwuniex6bTfm9diw9-4" value="" style="rounded=0;whiteSpace=wrap;html=1;verticalAlign=bottom;fontSize=13;" parent="1" vertex="1">
          <mxGeometry x="197.4" y="160" width="25.8" height="80" as="geometry" />
        </mxCell>
        <mxCell id="wj3Kwuniex6bTfm9diw9-5" value="" style="rounded=0;whiteSpace=wrap;html=1;verticalAlign=bottom;fontSize=13;" parent="1" vertex="1">
          <mxGeometry x="223.2" y="160" width="25.8" height="80" as="geometry" />
        </mxCell>
        <mxCell id="wj3Kwuniex6bTfm9diw9-6" value="" style="rounded=0;whiteSpace=wrap;html=1;verticalAlign=bottom;fontColor=#FFFFFF;fontSize=13;fillColor=#4D4D4D;" parent="1" vertex="1">
          <mxGeometry x="138.2" y="160" width="14" height="50" as="geometry" />
        </mxCell>
        <mxCell id="-fuD-kDa9oxXJxm3QYNq-21" value="" style="rounded=0;whiteSpace=wrap;html=1;verticalAlign=bottom;fontColor=#FFFFFF;fontSize=13;fillColor=#4D4D4D;" parent="1" vertex="1">
          <mxGeometry x="165" y="160" width="14" height="50" as="geometry" />
        </mxCell>
        <mxCell id="-fuD-kDa9oxXJxm3QYNq-22" value="1" style="rounded=0;whiteSpace=wrap;html=1;verticalAlign=bottom;fontSize=13;" parent="1" vertex="1">
          <mxGeometry x="249" y="160" width="25.8" height="80" as="geometry" />
        </mxCell>
        <mxCell id="-fuD-kDa9oxXJxm3QYNq-23" value="" style="rounded=0;whiteSpace=wrap;html=1;verticalAlign=bottom;fontSize=13;" parent="1" vertex="1">
          <mxGeometry x="274.8" y="160" width="25.8" height="80" as="geometry" />
        </mxCell>
        <mxCell id="-fuD-kDa9oxXJxm3QYNq-24" value="2" style="rounded=0;whiteSpace=wrap;html=1;verticalAlign=bottom;fontColor=#FFFFFF;fontSize=13;fillColor=#4D4D4D;" parent="1" vertex="1">
          <mxGeometry x="217.1" y="160" width="14" height="50" as="geometry" />
        </mxCell>
        <mxCell id="-fuD-kDa9oxXJxm3QYNq-25" value="" style="rounded=0;whiteSpace=wrap;html=1;verticalAlign=bottom;fontColor=#FFFFFF;fontSize=13;fillColor=#4D4D4D;" parent="1" vertex="1">
          <mxGeometry x="241.9" y="160" width="14" height="50" as="geometry" />
        </mxCell>
        <mxCell id="-fuD-kDa9oxXJxm3QYNq-26" value="" style="rounded=0;whiteSpace=wrap;html=1;verticalAlign=bottom;fontColor=#FFFFFF;fontSize=13;fillColor=#4D4D4D;" parent="1" vertex="1">
          <mxGeometry x="268" y="160" width="14" height="50" as="geometry" />
        </mxCell>
        <mxCell id="SRxIDULpIgZuUVh33xPF-1" value="" style="rounded=0;whiteSpace=wrap;html=1;verticalAlign=bottom;fontSize=13;" vertex="1" parent="1">
          <mxGeometry x="120" y="240" width="25.8" height="80" as="geometry" />
        </mxCell>
        <mxCell id="SRxIDULpIgZuUVh33xPF-2" value="" style="rounded=0;whiteSpace=wrap;html=1;verticalAlign=bottom;fontSize=13;" vertex="1" parent="1">
          <mxGeometry x="145.8" y="240" width="25.8" height="80" as="geometry" />
        </mxCell>
        <mxCell id="SRxIDULpIgZuUVh33xPF-3" value="" style="rounded=0;whiteSpace=wrap;html=1;verticalAlign=bottom;fontSize=13;" vertex="1" parent="1">
          <mxGeometry x="171.6" y="240" width="25.8" height="80" as="geometry" />
        </mxCell>
        <mxCell id="SRxIDULpIgZuUVh33xPF-4" value="" style="rounded=0;whiteSpace=wrap;html=1;verticalAlign=bottom;fontSize=13;" vertex="1" parent="1">
          <mxGeometry x="197.4" y="240" width="25.8" height="80" as="geometry" />
        </mxCell>
        <mxCell id="SRxIDULpIgZuUVh33xPF-5" value="" style="rounded=0;whiteSpace=wrap;html=1;verticalAlign=bottom;fontSize=13;" vertex="1" parent="1">
          <mxGeometry x="223.2" y="240" width="25.8" height="80" as="geometry" />
        </mxCell>
        <mxCell id="SRxIDULpIgZuUVh33xPF-6" value="5" style="rounded=0;whiteSpace=wrap;html=1;verticalAlign=bottom;fontColor=#FFFFFF;fontSize=13;fillColor=#4D4D4D;" vertex="1" parent="1">
          <mxGeometry x="138.2" y="240" width="14" height="50" as="geometry" />
        </mxCell>
        <mxCell id="SRxIDULpIgZuUVh33xPF-7" value="" style="rounded=0;whiteSpace=wrap;html=1;verticalAlign=bottom;fontColor=#FFFFFF;fontSize=13;fillColor=#4D4D4D;" vertex="1" parent="1">
          <mxGeometry x="165" y="240" width="14" height="50" as="geometry" />
        </mxCell>
        <mxCell id="SRxIDULpIgZuUVh33xPF-8" value="1" style="rounded=0;whiteSpace=wrap;html=1;verticalAlign=bottom;fontSize=13;" vertex="1" parent="1">
          <mxGeometry x="249" y="240" width="25.8" height="80" as="geometry" />
        </mxCell>
        <mxCell id="SRxIDULpIgZuUVh33xPF-9" value="" style="rounded=0;whiteSpace=wrap;html=1;verticalAlign=bottom;fontSize=13;" vertex="1" parent="1">
          <mxGeometry x="274.8" y="240" width="25.8" height="80" as="geometry" />
        </mxCell>
        <mxCell id="SRxIDULpIgZuUVh33xPF-10" value="2" style="rounded=0;whiteSpace=wrap;html=1;verticalAlign=bottom;fontColor=#FFFFFF;fontSize=13;fillColor=#4D4D4D;" vertex="1" parent="1">
          <mxGeometry x="217.1" y="240" width="14" height="50" as="geometry" />
        </mxCell>
        <mxCell id="SRxIDULpIgZuUVh33xPF-11" value="" style="rounded=0;whiteSpace=wrap;html=1;verticalAlign=bottom;fontColor=#FFFFFF;fontSize=13;fillColor=#4D4D4D;" vertex="1" parent="1">
          <mxGeometry x="241.9" y="240" width="14" height="50" as="geometry" />
        </mxCell>
        <mxCell id="SRxIDULpIgZuUVh33xPF-12" value="" style="rounded=0;whiteSpace=wrap;html=1;verticalAlign=bottom;fontColor=#FFFFFF;fontSize=13;fillColor=#4D4D4D;" vertex="1" parent="1">
          <mxGeometry x="268" y="240" width="14" height="50" as="geometry" />
        </mxCell>
        <mxCell id="SRxIDULpIgZuUVh33xPF-13" value="" style="rounded=0;whiteSpace=wrap;html=1;verticalAlign=bottom;fontSize=13;" vertex="1" parent="1">
          <mxGeometry x="120" y="320" width="25.8" height="80" as="geometry" />
        </mxCell>
        <mxCell id="SRxIDULpIgZuUVh33xPF-14" value="" style="rounded=0;whiteSpace=wrap;html=1;verticalAlign=bottom;fontSize=13;" vertex="1" parent="1">
          <mxGeometry x="145.8" y="320" width="25.8" height="80" as="geometry" />
        </mxCell>
        <mxCell id="SRxIDULpIgZuUVh33xPF-15" value="3" style="rounded=0;whiteSpace=wrap;html=1;verticalAlign=bottom;fontSize=13;" vertex="1" parent="1">
          <mxGeometry x="171.6" y="320" width="25.8" height="80" as="geometry" />
        </mxCell>
        <mxCell id="SRxIDULpIgZuUVh33xPF-16" value="" style="rounded=0;whiteSpace=wrap;html=1;verticalAlign=bottom;fontSize=13;" vertex="1" parent="1">
          <mxGeometry x="197.4" y="320" width="25.8" height="80" as="geometry" />
        </mxCell>
        <mxCell id="SRxIDULpIgZuUVh33xPF-17" value="" style="rounded=0;whiteSpace=wrap;html=1;verticalAlign=bottom;fontSize=13;" vertex="1" parent="1">
          <mxGeometry x="223.2" y="320" width="25.8" height="80" as="geometry" />
        </mxCell>
        <mxCell id="SRxIDULpIgZuUVh33xPF-18" value="5" style="rounded=0;whiteSpace=wrap;html=1;verticalAlign=bottom;fontColor=#FFFFFF;fontSize=13;fillColor=#4D4D4D;" vertex="1" parent="1">
          <mxGeometry x="138.2" y="320" width="14" height="50" as="geometry" />
        </mxCell>
        <mxCell id="SRxIDULpIgZuUVh33xPF-19" value="" style="rounded=0;whiteSpace=wrap;html=1;verticalAlign=bottom;fontColor=#FFFFFF;fontSize=13;fillColor=#4D4D4D;" vertex="1" parent="1">
          <mxGeometry x="165" y="320" width="14" height="50" as="geometry" />
        </mxCell>
        <mxCell id="SRxIDULpIgZuUVh33xPF-20" value="1" style="rounded=0;whiteSpace=wrap;html=1;verticalAlign=bottom;fontSize=13;" vertex="1" parent="1">
          <mxGeometry x="249" y="320" width="25.8" height="80" as="geometry" />
        </mxCell>
        <mxCell id="SRxIDULpIgZuUVh33xPF-21" value="" style="rounded=0;whiteSpace=wrap;html=1;verticalAlign=bottom;fontSize=13;" vertex="1" parent="1">
          <mxGeometry x="274.8" y="320" width="25.8" height="80" as="geometry" />
        </mxCell>
        <mxCell id="SRxIDULpIgZuUVh33xPF-22" value="" style="rounded=0;whiteSpace=wrap;html=1;verticalAlign=bottom;fontColor=#FFFFFF;fontSize=13;fillColor=#4D4D4D;" vertex="1" parent="1">
          <mxGeometry x="217.1" y="320" width="14" height="50" as="geometry" />
        </mxCell>
        <mxCell id="SRxIDULpIgZuUVh33xPF-23" value="" style="rounded=0;whiteSpace=wrap;html=1;verticalAlign=bottom;fontColor=#FFFFFF;fontSize=13;fillColor=#4D4D4D;" vertex="1" parent="1">
          <mxGeometry x="241.9" y="320" width="14" height="50" as="geometry" />
        </mxCell>
        <mxCell id="SRxIDULpIgZuUVh33xPF-24" value="" style="rounded=0;whiteSpace=wrap;html=1;verticalAlign=bottom;fontColor=#FFFFFF;fontSize=13;fillColor=#4D4D4D;" vertex="1" parent="1">
          <mxGeometry x="268" y="320" width="14" height="50" as="geometry" />
        </mxCell>
      </root>
    </mxGraphModel>
  </diagram>
</mxfile>
